# xmcd CD database file
#
# Track frame offsets:
#	150
#	14565
#	33241
#	49678
#	79076
#	95584
#	110309
#	130140
#	147035
#
# Disc length: 2293 seconds
#
# Revision: 0
# Processed by: cddbd v1.4PL0 Copyright (c) Steve Scherf et al.
# Submitted via: CDex 1.50Beta6
#
DISCID=6d08f309
DTITLE=David Fakoure Trio - JAZZ ON BIGUINE
DYEAR=2000
DGENRE=Jazz
TTITLE0=Bonjour loca
TTITLE1=An tan ta la
TTITLE2=Seconza ou yé
TTITLE3=Lazing in a hammock
TTITLE4=Jamming the beguine
TTITLE5=More rum please
TTITLE6=Nostalgie d'amour
TTITLE7=Si a coco
TTITLE8=In a Carrabean mood
EXTD=YEAR: 2000
EXTT0=
EXTT1=
EXTT2=
EXTT3=
EXTT4=
EXTT5=
EXTT6=
EXTT7=
EXTT8=
PLAYORDER=
